<?xml version="1.0" encoding="UTF-8"?>
<svg version="1.1" xmlns="http://www.w3.org/2000/svg" width="341" height="255">
<path d="M0 0 C0.78117187 -0.020625 1.56234375 -0.04125 2.3671875 -0.0625 C8.2386754 -0.10271567 8.2386754 -0.10271567 10.21337891 1.70019531 C10.67921387 2.21163086 11.14504883 2.72306641 11.625 3.25 C13.26863134 3.97159424 14.93550386 4.64351421 16.625 5.25 C17.615 5.745 17.615 5.745 18.625 6.25 C19.285 6.518125 19.945 6.78625 20.625 7.0625 C22.625 8.25 22.625 8.25 23.40234375 10.26171875 C24.47197403 12.50464427 24.47197403 12.50464427 27.06640625 12.9375 C28.61134766 13.0921875 28.61134766 13.0921875 30.1875 13.25 C35.78912807 13.95020351 41.20015052 14.95510603 46.6875 16.25 C47.77623413 16.49943359 47.77623413 16.49943359 48.88696289 16.75390625 C52.36634334 17.58149621 55.51697554 18.46232961 58.625 20.25 C59.32625 20.600625 60.0275 20.95125 60.75 21.3125 C63.19031222 22.53265611 65.33546729 23.72364486 67.625 25.25 C68.285 25.58 68.945 25.91 69.625 26.25 C72.73048208 28.32032138 74.98918082 30.61418082 77.625 33.25 C80.5003687 35.78495981 83.43116567 38.12077711 86.625 40.25 C87.3125 42.375 87.3125 42.375 87.625 44.25 C88.285 44.25 88.945 44.25 89.625 44.25 C89.955 45.24 90.285 46.23 90.625 47.25 C91.12 47.70375 91.615 48.1575 92.125 48.625 C94.06078369 50.72209899 94.12852262 52.48391172 94.625 55.25 C95.285 55.91 95.945 56.57 96.625 57.25 C97.89822729 59.57176742 98.78362416 61.72587248 99.625 64.25 C99.934375 64.848125 100.24375 65.44625 100.5625 66.0625 C102.25207014 69.54102675 103.40165688 73.0774486 104.125 76.875 C104.50242049 79.23495765 104.50242049 79.23495765 105.625 81.078125 C106.79771911 83.62512432 106.96563319 85.57811246 107.125 88.375 C107.42477297 92.79129819 107.8302716 97.169062 108.35595703 101.5625 C109.57732872 111.77680261 110.19211236 121.97461441 110.625 132.25 C111.615 132.58 112.605 132.91 113.625 133.25 C113.955 134.24 114.285 135.23 114.625 136.25 C115.285 137.24 115.945 138.23 116.625 139.25 C116.955 140.24 117.285 141.23 117.625 142.25 C118.285 142.91 118.945 143.57 119.625 144.25 C120.32988863 145.5635274 120.99130379 146.90068487 121.625 148.25 C122.43490738 149.91792807 123.24753931 151.58453517 124.0625 153.25 C124.47371094 154.095625 124.88492188 154.94125 125.30859375 155.8125 C126.55009636 158.27333818 126.55009636 158.27333818 128.25 160.33203125 C130.23204667 163.09676112 130.18630242 165.92843263 130.625 169.25 C131.285 169.58 131.945 169.91 132.625 170.25 C133.02093121 173.09350596 133.13349854 175.9148717 133.28125 178.78125 C133.3946875 179.5959375 133.508125 180.410625 133.625 181.25 C134.285 181.58 134.945 181.91 135.625 182.25 C135.625 185.22 135.625 188.19 135.625 191.25 C136.285 191.58 136.945 191.91 137.625 192.25 C137.82691975 195.47842669 138.0086809 198.70771803 138.1875 201.9375 C138.24357422 202.83017578 138.29964844 203.72285156 138.35742188 204.64257812 C138.75428374 212.07712372 138.20868853 218.66204913 137.625 226.25 C72.945 226.25 8.265 226.25 -58.375 226.25 C-58.375 214.99401665 -58.375 214.99401665 -57.97265625 210.92578125 C-57.84407227 209.60030273 -57.84407227 209.60030273 -57.71289062 208.24804688 C-57.62201172 207.36181641 -57.53113281 206.47558594 -57.4375 205.5625 C-57.35048828 204.66466797 -57.26347656 203.76683594 -57.17382812 202.84179688 C-56.69064966 197.9563257 -56.11200997 193.10364223 -55.375 188.25 C-54.715 188.25 -54.055 188.25 -53.375 188.25 C-53.375 187.59 -53.375 186.93 -53.375 186.25 C-55.685 186.25 -57.995 186.25 -60.375 186.25 C-60.375 185.59 -60.375 184.93 -60.375 184.25 C-62.025 184.58 -63.675 184.91 -65.375 185.25 C-65.705 184.59 -66.035 183.93 -66.375 183.25 C-67.69947484 182.88304593 -69.03494876 182.5552074 -70.375 182.25 C-71.76702307 181.61964993 -73.14264787 180.95190072 -74.5 180.25 C-75.18320313 179.899375 -75.86640625 179.54875 -76.5703125 179.1875 C-77.16585937 178.878125 -77.76140625 178.56875 -78.375 178.25 C-79.035 177.92 -79.695 177.59 -80.375 177.25 C-81.365 176.59 -82.355 175.93 -83.375 175.25 C-84.035 174.92 -84.695 174.59 -85.375 174.25 C-86.15875 173.425 -86.9425 172.6 -87.75 171.75 C-90.05036307 169.13745481 -90.05036307 169.13745481 -92.5 168.75 C-95.3828143 167.98124952 -95.89100831 165.74310604 -97.375 163.25 C-98.24125 162.734375 -99.1075 162.21875 -100 161.6875 C-102.375 160.25 -102.375 160.25 -103 158.125 C-103.12375 157.50625 -103.2475 156.8875 -103.375 156.25 C-104.365 155.92 -105.355 155.59 -106.375 155.25 C-106.705 154.26 -107.035 153.27 -107.375 152.25 C-108.035 151.26 -108.695 150.27 -109.375 149.25 C-109.705 148.26 -110.035 147.27 -110.375 146.25 C-111.035 145.59 -111.695 144.93 -112.375 144.25 C-115.37003383 140.88058694 -116.21967889 137.5631988 -117.375 133.25 C-117.74625 132.54875 -118.1175 131.8475 -118.5 131.125 C-119.61018586 128.74603029 -119.51903872 126.84269691 -119.375 124.25 C-120.035 123.92 -120.695 123.59 -121.375 123.25 C-121.375 119.62 -121.375 115.99 -121.375 112.25 C-117.99794375 112.78725895 -114.678314 113.36064623 -111.375 114.25 C-111.375 112.6 -111.375 110.95 -111.375 109.25 C-112.035 108.92 -112.695 108.59 -113.375 108.25 C-112.715 105.94 -112.055 103.63 -111.375 101.25 C-109.75 100.5 -109.75 100.5 -107.375 100.25 C-102.6967447 102.43318581 -100.78292495 105.02357954 -98.0625 109.375 C-95.7724768 113.01389652 -95.7724768 113.01389652 -92.17578125 115.0625 C-90.64649436 115.27021299 -89.11510741 115.46302844 -87.58203125 115.640625 C-83.25058705 116.83656358 -80.98893473 120.81025299 -78.375 124.25 C-76.06236386 126.69111593 -74.18562187 128.37625209 -71.375 130.25 C-70.6875 132.375 -70.6875 132.375 -70.375 134.25 C-69.4159375 134.4046875 -69.4159375 134.4046875 -68.4375 134.5625 C-67.4165625 134.9028125 -67.4165625 134.9028125 -66.375 135.25 C-66.045 136.24 -65.715 137.23 -65.375 138.25 C-63.06470915 138.99259349 -60.729248 139.661438 -58.375 140.25 C-58.045 140.58 -57.715 140.91 -57.375 141.25 C-57.21688612 138.19729537 -57.21688612 138.19729537 -58.375 135.25 C-59.365 134.26 -59.365 134.26 -60.375 133.25 C-61.64822729 130.92823258 -62.53362416 128.77412752 -63.375 126.25 C-63.931875 125.2290625 -63.931875 125.2290625 -64.5 124.1875 C-64.933125 123.2284375 -64.933125 123.2284375 -65.375 122.25 C-65.045 121.59 -64.715 120.93 -64.375 120.25 C-65.365 119.755 -65.365 119.755 -66.375 119.25 C-68.86047392 111.73220851 -68.55623258 103.44297722 -68.5625 95.625 C-68.56330566 94.65997559 -68.56411133 93.69495117 -68.56494141 92.70068359 C-68.43975774 76.37951548 -68.43975774 76.37951548 -66.375 72.25 C-65.715 72.25 -65.055 72.25 -64.375 72.25 C-64.705 70.93 -65.035 69.61 -65.375 68.25 C-64.715 67.92 -64.055 67.59 -63.375 67.25 C-63.230625 66.321875 -63.08625 65.39375 -62.9375 64.4375 C-62.34394801 61.07403871 -61.56014446 59.78476757 -59.375 57.25 C-57.43701737 54.47739701 -57.43701737 54.47739701 -56.375 52.25 C-55.715 51.26 -55.055 50.27 -54.375 49.25 C-54.08625 48.569375 -53.7975 47.88875 -53.5 47.1875 C-52.375 45.25 -52.375 45.25 -50.3125 44.25 C-49.3534375 43.755 -49.3534375 43.755 -48.375 43.25 C-48.23835938 42.64542969 -48.10171875 42.04085937 -47.9609375 41.41796875 C-47.22683845 38.70180227 -46.05344284 37.52786327 -44.0625 35.5625 C-43.46824219 34.96050781 -42.87398438 34.35851563 -42.26171875 33.73828125 C-40.375 32.25 -40.375 32.25 -38.20703125 31.73046875 C-37.60246094 31.57191406 -36.99789062 31.41335937 -36.375 31.25 C-35.88 29.765 -35.88 29.765 -35.375 28.25 C-31.24796781 25.55155587 -28.19498906 24.18722009 -23.375 23.25 C-22.859375 22.71375 -22.34375 22.1775 -21.8125 21.625 C-21.338125 21.17125 -20.86375 20.7175 -20.375 20.25 C-18.1875 20.5625 -18.1875 20.5625 -16.375 21.25 C-16.890625 20.693125 -17.40625 20.13625 -17.9375 19.5625 C-19.375 17.25 -19.375 17.25 -19.1875 14.5625 C-18.375 12.25 -18.375 12.25 -16.375 11.25 C-14.67136178 11.02377919 -12.96171299 10.84111527 -11.25 10.6875 C-10.33992188 10.60371094 -9.42984375 10.51992188 -8.4921875 10.43359375 C-7.79351562 10.37300781 -7.09484375 10.31242187 -6.375 10.25 C-7.365 9.92 -8.355 9.59 -9.375 9.25 C-9.47265625 3.09765625 -9.47265625 3.09765625 -9.375 1.25 C-7.272997 -0.852003 -2.89201417 0.01890205 0 0 Z M-111.375 115.25 C-110.715 115.91 -110.055 116.57 -109.375 117.25 C-109.375 116.59 -109.375 115.93 -109.375 115.25 C-110.035 115.25 -110.695 115.25 -111.375 115.25 Z M-54.375 141.25 C-55.035 141.91 -55.695 142.57 -56.375 143.25 C-55.055 142.92 -53.735 142.59 -52.375 142.25 C-53.035 141.92 -53.695 141.59 -54.375 141.25 Z " fill="#EFAE7F" transform="translate(150.375,28.75)"/>
<path d="M0 0 C7.95890583 7.04481368 14.44661394 18.63626468 15.15454102 29.33569336 C15.19585042 31.87288241 15.17516072 34.40052507 15.125 36.9375 C15.11597656 37.81212891 15.10695312 38.68675781 15.09765625 39.58789062 C15.0742957 41.72538064 15.03843247 43.86272786 15 46 C14.01 46 13.02 46 12 46 C9.8359375 43.8046875 9.8359375 43.8046875 7.375 40.875 C0.83848029 33.37588595 -5.69845306 29.26370068 -15 26 C-15.66 25.34 -16.32 24.68 -17 24 C-21.66228885 23.5359554 -21.66228885 23.5359554 -25.9375 25.125 C-27.53773673 27.94894718 -27.44734094 29.80470761 -27 33 C-25.69254251 34.68704193 -24.35827971 36.35360035 -23 38 C-22.87625 38.928125 -22.7525 39.85625 -22.625 40.8125 C-21.10920521 48.54305342 -14.10652261 54.47750017 -8 59 C-3.4819856 61.80252773 0.65531506 63.46553151 6 64 C3.3902929 72.09570429 -4.44965532 76.37805854 -11.625 80.25 C-34.08505713 90.89966533 -61.13168525 90.42181304 -84.375 82.75 C-94.29940383 78.93729899 -103.2787006 73.37755083 -110 65 C-110 64.34 -110 63.68 -110 63 C-109.23816406 62.6596875 -108.47632812 62.319375 -107.69140625 61.96875 C-96.26975063 56.6072737 -89.57034951 51.3069084 -84.3515625 39.703125 C-83.12672822 37.25345644 -82.146018 35.84641533 -80.125 34.0625 C-77.75267058 32.18079454 -77.75267058 32.18079454 -77.625 29.375 C-77.95547527 26.85957587 -77.95547527 26.85957587 -79 24 C-84.03257867 22.65264664 -84.03257867 22.65264664 -88.76171875 24.046875 C-90.20003011 25.33664539 -91.60180963 26.66684174 -93 28 C-93.99 28 -94.98 28 -96 28 C-102.76391034 31.22822994 -107.96507422 35.54058399 -113 41 C-114.66184974 42.67146971 -116.32766445 44.33902157 -118 46 C-118.78123957 23.84317762 -118.78123957 23.84317762 -114 15 C-113.23623047 13.58654297 -113.23623047 13.58654297 -112.45703125 12.14453125 C-107.27704624 3.3610784 -100.69545394 -3.40049015 -91 -7 C-80.44155591 -9.53743253 -70.67342707 -7.83671353 -61 -3 C-53.35064892 -2.04040399 -47.63350682 -3.54129259 -40.7265625 -6.80859375 C-27.09134788 -12.76667464 -11.45975344 -8.48369605 0 0 Z " fill="#FDDBAD" transform="translate(212,87)"/>
<path d="M0 0 C7.19162241 4.31497345 9.48884623 12.84939718 11.75 20.5 C14.72176021 32.47098888 14.107931 44.7558278 14 57 C11.69 57 9.38 57 7 57 C6.98018066 56.32646484 6.96036133 55.65292969 6.93994141 54.95898438 C6.58550353 30.26645764 6.58550353 30.26645764 0.8046875 6.453125 C0 4 0 4 0 0 Z " fill="#E39869" transform="translate(236,198)"/>
<path d="M0 0 C2.3125 0.1875 2.3125 0.1875 4 1 C4.8125 3.125 4.8125 3.125 5 6 C1.54517788 11.29019638 -2.68983955 14.56646548 -8.76171875 16.5859375 C-17.6222565 18.22505967 -26.41525793 18.05649471 -34 13 C-34.66 12.34 -35.32 11.68 -36 11 C-35.625 8.375 -35.625 8.375 -35 6 C-32.1530411 6.51762889 -29.50664417 7.16128941 -26.75 8.0625 C-19.42975578 9.89256106 -13.82983676 9.52675151 -7.00390625 6.2265625 C-4.71148392 4.93081293 -4.71148392 4.93081293 -2.1875 2.1875 C-1.465625 1.465625 -0.74375 0.74375 0 0 Z " fill="#8F5D39" transform="translate(177,134)"/>
<path d="M0 0 C3.5625 1.5625 3.5625 1.5625 6 4 C6.625 7.5 6.625 7.5 6 11 C4.13291495 13.36497439 2.67938569 14.66030715 0 16 C-5.37689567 16.54930958 -9.64079868 16.54185108 -14 13 C-15.42041821 10.15916359 -15.31452272 8.14522722 -15 5 C-10.69128887 -0.31407706 -6.5362062 -0.76638934 0 0 Z " fill="#C67F52" transform="translate(160,117)"/>
<path d="M0 0 C1.14213036 3.42639108 0.81829256 4.84555045 0.1640625 8.35546875 C-1.42114873 17.9506591 -1.9623776 27.61786339 -2.625 37.3125 C-2.75992626 39.22855022 -2.89533936 41.14456623 -3.03125 43.06054688 C-3.35977445 47.70665626 -3.68172885 52.35317745 -4 57 C-5.98 57 -7.96 57 -10 57 C-10.12663958 50.03857563 -9.77247731 43.23603759 -9.0625 36.3125 C-8.93198242 34.96575195 -8.93198242 34.96575195 -8.79882812 33.59179688 C-8.31564966 28.7063257 -7.73700997 23.85364223 -7 19 C-6.34 19 -5.68 19 -5 19 C-5 18.34 -5 17.68 -5 17 C-6.65 16.67 -8.3 16.34 -10 16 C-6.25 14.875 -6.25 14.875 -4 16 C-3.87882812 15.34773437 -3.75765625 14.69546875 -3.6328125 14.0234375 C-2.71056011 9.21353658 -1.69832723 4.60974535 0 0 Z " fill="#E59867" transform="translate(102,198)"/>
<path d="M0 0 C3.42641601 1.16643949 4.94029949 1.96425523 6.9375 5 C6.87663078 8.46954545 6.5649029 10.91947278 4.8125 13.9375 C1.75297541 15.6712306 -0.63067525 15.42145216 -4.0625 15 C-6.5 13.4375 -6.5 13.4375 -8.0625 11 C-8.625 7.5 -8.625 7.5 -8.0625 4 C-5.42319379 0.89493388 -4.09839632 0 0 0 Z " fill="#91603C" transform="translate(128.0625,109)"/>
<path d="M0 0 C2.5 2.125 2.5 2.125 4 5 C3.936318 8.18409977 3.51040601 10.14932332 1.875 12.875 C-1.16832808 14.70099685 -3.54249555 14.42460581 -7 14 C-9.4375 12.375 -9.4375 12.375 -11 10 C-11.60605429 6.36367425 -11.47161336 4.71685231 -9.4375 1.625 C-6.04129157 -0.63913895 -3.99900698 -0.64269755 0 0 Z " fill="#915F3A" transform="translate(195,110)"/>
<path d="M0 0 C1.58206057 0.00667536 3.16410534 0.0186375 4.74609375 0.03515625 C5.55240234 0.03966797 6.35871094 0.04417969 7.18945312 0.04882812 C9.18753131 0.06065107 11.18557158 0.07858711 13.18359375 0.09765625 C12.85359375 0.75765625 12.52359375 1.41765625 12.18359375 2.09765625 C9.85864098 2.48514838 7.52363545 2.81523742 5.18359375 3.09765625 C4.19359375 3.42765625 3.20359375 3.75765625 2.18359375 4.09765625 C3.13695396 5.41377302 4.09645149 6.72544586 5.05859375 8.03515625 C5.85910156 9.13150391 5.85910156 9.13150391 6.67578125 10.25 C8.06371479 12.2086386 8.06371479 12.2086386 10.18359375 13.09765625 C10.18359375 13.75765625 10.18359375 14.41765625 10.18359375 15.09765625 C2.5354456 14.19024884 2.5354456 14.19024884 -0.19140625 13.47265625 C-4.84700178 12.80757117 -10.56149898 12.97020262 -14.81640625 15.09765625 C-14.48640625 14.10765625 -14.15640625 13.11765625 -13.81640625 12.09765625 C-11.38252872 10.88071749 -9.39801779 10.77805729 -6.69140625 10.53515625 C-5.32628906 10.40947266 -5.32628906 10.40947266 -3.93359375 10.28125 C-3.23492187 10.22066406 -2.53625 10.16007812 -1.81640625 10.09765625 C-2.80640625 9.76765625 -3.79640625 9.43765625 -4.81640625 9.09765625 C-4.9140625 2.9453125 -4.9140625 2.9453125 -4.81640625 1.09765625 C-3.81640625 0.09765625 -3.81640625 0.09765625 0 0 Z " fill="#EA9F68" transform="translate(145.81640625,28.90234375)"/>
<path d="M0 0 C0.66 0 1.32 0 2 0 C1.49396008 2.16874252 1.00016187 3.99967627 0 6 C-0.23029956 8.37123246 -0.41119942 10.74741943 -0.5625 13.125 C-0.64628906 14.40632812 -0.73007812 15.68765625 -0.81640625 17.0078125 C-0.90728516 18.48894531 -0.90728516 18.48894531 -1 20 C-3.75178238 17.46415226 -4.91121909 16.31961129 -5.9375 12.625 C-6.00804219 8.5335532 -5.10718184 6.45577822 -3 3 C-2.34 3 -1.68 3 -1 3 C-0.67 2.01 -0.34 1.02 0 0 Z " fill="#E39867" transform="translate(60,145)"/>
<path d="M0 0 C3.16115776 1.36983503 3.9927092 1.9890638 6 5 C6.125 7.6875 6.125 7.6875 6 10 C2.64888166 7.76592111 1.18446044 6.73784176 0.1875 2.75 C0.125625 1.8425 0.06375 0.935 0 0 Z " fill="#E19564" transform="translate(42,148)"/>
<path d="M0 0 C0.66 0.33 1.32 0.66 2 1 C1.42655063 3.86724686 1.1385485 4.8614515 -1 7 C-2.65204456 7.70211894 -4.31923769 8.36971413 -6 9 C-6.99 9.495 -6.99 9.495 -8 10 C-6.34908222 5.70761377 -3.26245434 3.1206085 0 0 Z " fill="#F99D6A" transform="translate(110,61)"/>
<path d="M0 0 C4.62 0 9.24 0 14 0 C13.67 0.66 13.34 1.32 13 2 C10.6693782 2.35179197 8.33564933 2.68330179 6 3 C3.66411677 3.95584438 3.66411677 3.95584438 2 5 C2 3.68 2 2.36 2 1 C1.34 0.67 0.68 0.34 0 0 Z " fill="#F2A273" transform="translate(145,29)"/>
<path d="M0 0 C0 0.33 0 0.66 0 1 C-1.36125 1.37125 -1.36125 1.37125 -2.75 1.75 C-6.10351489 3.03981342 -7.67708236 4.31971042 -10 7 C-10.33 6.01 -10.66 5.02 -11 4 C-7.65667474 -0.27945633 -5.29105716 -0.4070044 0 0 Z " fill="#885634" transform="translate(195,110)"/>
<path d="M0 0 C0.86625 0.37125 0.86625 0.37125 1.75 0.75 C0.76 0.75 -0.23 0.75 -1.25 0.75 C-2.77299523 3.68720508 -4.05100302 6.6668649 -5.25 9.75 C-5.58 9.75 -5.91 9.75 -6.25 9.75 C-6.58102914 6.1086795 -6.67019439 4.33527075 -4.5 1.3125 C-2.25 -0.25 -2.25 -0.25 0 0 Z " fill="#BB6F41" transform="translate(151.25,118.25)"/>
<path d="M0 0 C2 3 2 3 1.7578125 5.48046875 C1.54898438 6.37378906 1.34015625 7.26710937 1.125 8.1875 C0.92132813 9.08855469 0.71765625 9.98960937 0.5078125 10.91796875 C0.34023437 11.60503906 0.17265625 12.29210937 0 13 C-0.33 13 -0.66 13 -1 13 C-1.02708567 11.39592672 -1.04643483 9.7917215 -1.0625 8.1875 C-1.07410156 7.29417969 -1.08570312 6.40085938 -1.09765625 5.48046875 C-1 3 -1 3 0 0 Z " fill="#EAA15D" transform="translate(93,242)"/>
<path d="M0 0 C1.98 0.99 1.98 0.99 4 2 C3.67 2.66 3.34 3.32 3 4 C2.01 2.68 1.02 1.36 0 0 Z " fill="#FFA73F" transform="translate(66,145)"/>
<path d="M0 0 C0.99 0.495 0.99 0.495 2 1 C1.67 1.66 1.34 2.32 1 3 C0.67 2.01 0.34 1.02 0 0 Z " fill="#FFCA75" transform="translate(50,133)"/>
<path d="M0 0 C0.99 0.33 1.98 0.66 3 1 C2.01 1 1.02 1 0 1 C0 0.67 0 0.34 0 0 Z " fill="#FFCA8A" transform="translate(46,130)"/>
<path d="M0 0 C0.99 0.33 1.98 0.66 3 1 C2.01 1 1.02 1 0 1 C0 0.67 0 0.34 0 0 Z " fill="#FFE994" transform="translate(225,59)"/>
<path d="M0 0 C0.33 0.66 0.66 1.32 1 2 C0.34 1.67 -0.32 1.34 -1 1 C-0.67 0.67 -0.34 0.34 0 0 Z " fill="#FF381C" transform="translate(38,141)"/>
<path d="M0 0 C2 1 2 1 2 1 Z " fill="#FF4000" transform="translate(82,212)"/>
<path d="" fill="#FF7F00" transform="translate(0,0)"/>
<path d="M0 0 C2 1 2 1 2 1 Z " fill="#FFFF40" transform="translate(68,205)"/>
<path d="" fill="#FF7F7F" transform="translate(0,0)"/>
<path d="M0 0 C2 1 2 1 2 1 Z " fill="#FF552A" transform="translate(62,201)"/>
<path d="" fill="#FF4040" transform="translate(0,0)"/>
<path d="" fill="#FF552A" transform="translate(0,0)"/>
<path d="" fill="#FF552A" transform="translate(0,0)"/>
<path d="" fill="#FFFF2A" transform="translate(0,0)"/>
<path d="M0 0 C2 1 2 1 2 1 Z " fill="#FF552A" transform="translate(85,166)"/>
<path d="" fill="#FFD42A" transform="translate(0,0)"/>
<path d="" fill="#FFD42A" transform="translate(0,0)"/>
<path d="" fill="#FF7F00" transform="translate(0,0)"/>
<path d="" fill="#FF5F40" transform="translate(0,0)"/>
<path d="M0 0 C2 1 2 1 2 1 Z " fill="#FF4040" transform="translate(35,141)"/>
<path d="" fill="#FFD42A" transform="translate(0,0)"/>
<path d="" fill="#FF552A" transform="translate(0,0)"/>
<path d="" fill="#FFD42A" transform="translate(0,0)"/>
<path d="" fill="#FF552A" transform="translate(0,0)"/>
<path d="" fill="#FF7F2A" transform="translate(0,0)"/>
<path d="M0 0 C2 1 2 1 2 1 Z " fill="#FFFF40" transform="translate(215,52)"/>
<path d="M0 0 C2 1 2 1 2 1 Z " fill="#FF0000" transform="translate(200,45)"/>
<path d="M0 0 C2 1 2 1 2 1 Z " fill="#FF7F40" transform="translate(164,32)"/>
<path d="M0 0 C2 1 2 1 2 1 Z " fill="#FF4000" transform="translate(162,31)"/>
<path d="" fill="#FF0000" transform="translate(0,0)"/>
<path d="" fill="#FF8080" transform="translate(0,0)"/>
<path d="" fill="#FFAA55" transform="translate(0,0)"/>
<path d="" fill="#FFAA55" transform="translate(0,0)"/>
<path d="" fill="#FFAA55" transform="translate(0,0)"/>
<path d="" fill="#FFBF80" transform="translate(0,0)"/>
<path d="" fill="#FFBF80" transform="translate(0,0)"/>
<path d="" fill="#FFBF40" transform="translate(0,0)"/>
<path d="" fill="#FFCC66" transform="translate(0,0)"/>
<path d="" fill="#FF8040" transform="translate(0,0)"/>
<path d="" fill="#FFFF00" transform="translate(0,0)"/>
<path d="" fill="#FFAA55" transform="translate(0,0)"/>
<path d="" fill="#FFBF40" transform="translate(0,0)"/>
<path d="" fill="#FFBF40" transform="translate(0,0)"/>
<path d="" fill="#FFAA55" transform="translate(0,0)"/>
<path d="" fill="#FFFF80" transform="translate(0,0)"/>
<path d="" fill="#FFAA55" transform="translate(0,0)"/>
<path d="" fill="#FF8080" transform="translate(0,0)"/>
<path d="" fill="#FFAAAA" transform="translate(0,0)"/>
<path d="" fill="#FFBF80" transform="translate(0,0)"/>
<path d="" fill="#FFBF80" transform="translate(0,0)"/>
<path d="" fill="#FFAAAA" transform="translate(0,0)"/>
<path d="" fill="#FFAAAA" transform="translate(0,0)"/>
<path d="" fill="#FFAA55" transform="translate(0,0)"/>
<path d="" fill="#FF8080" transform="translate(0,0)"/>
<path d="" fill="#FFBF40" transform="translate(0,0)"/>
<path d="" fill="#FF9966" transform="translate(0,0)"/>
<path d="" fill="#FF8080" transform="translate(0,0)"/>
<path d="" fill="#FFBF80" transform="translate(0,0)"/>
<path d="" fill="#FFBF80" transform="translate(0,0)"/>
<path d="" fill="#FF8080" transform="translate(0,0)"/>
<path d="" fill="#FF8080" transform="translate(0,0)"/>
<path d="" fill="#FFAA55" transform="translate(0,0)"/>
<path d="" fill="#FFAA55" transform="translate(0,0)"/>
<path d="" fill="#FFCC66" transform="translate(0,0)"/>
<path d="" fill="#FFAA55" transform="translate(0,0)"/>
<path d="" fill="#FFBF80" transform="translate(0,0)"/>
<path d="" fill="#FF8080" transform="translate(0,0)"/>
<path d="" fill="#FF8080" transform="translate(0,0)"/>
<path d="" fill="#FFFF00" transform="translate(0,0)"/>
<path d="" fill="#FFBF80" transform="translate(0,0)"/>
<path d="" fill="#FF8040" transform="translate(0,0)"/>
<path d="" fill="#FF8040" transform="translate(0,0)"/>
<path d="" fill="#FFBF80" transform="translate(0,0)"/>
<path d="" fill="#FF8040" transform="translate(0,0)"/>
<path d="" fill="#FFBF40" transform="translate(0,0)"/>
<path d="" fill="#FFCC66" transform="translate(0,0)"/>
<path d="" fill="#FFFF80" transform="translate(0,0)"/>
<path d="" fill="#FFFF00" transform="translate(0,0)"/>
<path d="" fill="#FFAAAA" transform="translate(0,0)"/>
<path d="" fill="#FF9966" transform="translate(0,0)"/>
<path d="" fill="#FF0000" transform="translate(0,0)"/>
<path d="" fill="#FFFF00" transform="translate(0,0)"/>
<path d="" fill="#FF0000" transform="translate(0,0)"/>
<path d="" fill="#FF0000" transform="translate(0,0)"/>
<path d="" fill="#FF8080" transform="translate(0,0)"/>
<path d="" fill="#FF8080" transform="translate(0,0)"/>
<path d="" fill="#FFAAAA" transform="translate(0,0)"/>
<path d="" fill="#FFAA55" transform="translate(0,0)"/>
<path d="" fill="#FF9933" transform="translate(0,0)"/>
<path d="" fill="#FFBF80" transform="translate(0,0)"/>
<path d="" fill="#FFCC66" transform="translate(0,0)"/>
<path d="" fill="#FFBF40" transform="translate(0,0)"/>
<path d="" fill="#FF9966" transform="translate(0,0)"/>
<path d="" fill="#FF9966" transform="translate(0,0)"/>
<path d="" fill="#FFBF80" transform="translate(0,0)"/>
<path d="" fill="#FFAA55" transform="translate(0,0)"/>
<path d="" fill="#FFBF40" transform="translate(0,0)"/>
<path d="" fill="#FF9966" transform="translate(0,0)"/>
<path d="" fill="#FF9966" transform="translate(0,0)"/>
<path d="" fill="#FF8040" transform="translate(0,0)"/>
<path d="" fill="#FFFF80" transform="translate(0,0)"/>
<path d="" fill="#FFBF80" transform="translate(0,0)"/>
<path d="" fill="#FFBF80" transform="translate(0,0)"/>
<path d="" fill="#FFBF40" transform="translate(0,0)"/>
<path d="" fill="#FFCC66" transform="translate(0,0)"/>
<path d="" fill="#FFAAAA" transform="translate(0,0)"/>
<path d="" fill="#FFBF80" transform="translate(0,0)"/>
<path d="" fill="#FF8040" transform="translate(0,0)"/>
<path d="" fill="#FFAA55" transform="translate(0,0)"/>
<path d="" fill="#FFAA55" transform="translate(0,0)"/>
<path d="" fill="#FFAA55" transform="translate(0,0)"/>
<path d="" fill="#FFBF80" transform="translate(0,0)"/>
<path d="" fill="#FFBF40" transform="translate(0,0)"/>
<path d="" fill="#FFFF00" transform="translate(0,0)"/>
<path d="" fill="#FFAAAA" transform="translate(0,0)"/>
<path d="" fill="#FFBF40" transform="translate(0,0)"/>
<path d="" fill="#FFBF40" transform="translate(0,0)"/>
<path d="" fill="#FFBF80" transform="translate(0,0)"/>
<path d="" fill="#FFBF80" transform="translate(0,0)"/>
<path d="" fill="#FFCC66" transform="translate(0,0)"/>
<path d="" fill="#FF8040" transform="translate(0,0)"/>
<path d="" fill="#FFBF80" transform="translate(0,0)"/>
<path d="" fill="#FFBF40" transform="translate(0,0)"/>
<path d="" fill="#FFFF80" transform="translate(0,0)"/>
<path d="" fill="#FF8000" transform="translate(0,0)"/>
</svg>
